<svg xmlns="http://www.w3.org/2000/svg" xmlns:xlink="http://www.w3.org/1999/xlink" viewBox="0 0 253.65 98.17"><defs><style>.cls-1{fill:none;}.cls-2{fill:#242424;}.cls-3{clip-path:url(#clip-path);}.cls-4{fill:#1b1f24;}</style><clipPath id="clip-path"><rect class="cls-1" x="32.4" y="31.8" width="66.46" height="33.33"/></clipPath></defs><g id="Calque_2" data-name="Calque 2"><g id="Calque_1-2" data-name="Calque 1"><path class="cls-2" d="M134,75.69H122.85l-16.5-42.45h11.52l10.88,31.23L139.6,33.24h11.11Z"/><path class="cls-2" d="M183.1,67.86H164.54l-3.11,7.83h-11.1l18.33-42.45h11.11l17.89,42.45H186.14Zm-3.17-8.19L173.87,44l-6.19,15.7Z"/><path class="cls-2" d="M201.61,33.24h18.5q8.12,0,12.6,3.85T237.21,48q0,7.45-4.5,11.58t-12.6,4.13H212.4V75.69H201.61Zm10.79,8.48V55.26h7.16a8,8,0,0,0,5.52-1.75A6.54,6.54,0,0,0,227,48.4a6.24,6.24,0,0,0-1.94-5,8.12,8.12,0,0,0-5.52-1.7Z"/><path class="cls-2" d="M253.65,75.69H242.86V33.24h10.79Z"/><g class="cls-3"><path class="cls-4" d="M34.08,34.08a3.06,3.06,0,0,0-1,2.36v7.32h32V54.42h-32v7.31A3.33,3.33,0,0,0,33.35,63a3.44,3.44,0,0,0,.73,1.08,3.33,3.33,0,0,0,1.08.73,3.7,3.7,0,0,0,1.28.26H95.49a49.25,49.25,0,0,0,0-32h-59A3.09,3.09,0,0,0,34.08,34.08Z"/></g><path class="cls-4" d="M33.09,75.74a10.2,10.2,0,0,1-4.15-.84,10.74,10.74,0,0,1-3.39-2.29,10.4,10.4,0,0,1-2.28-3.38,10.2,10.2,0,0,1-.84-4.15v-32a10.23,10.23,0,0,1,.84-4.15,10.63,10.63,0,0,1,5.67-5.67,10.2,10.2,0,0,1,4.15-.84H90.3a49.76,49.76,0,0,0-3.63-4.91A49.18,49.18,0,0,0,72.55,6,47.21,47.21,0,0,0,67,3.39a48.06,48.06,0,0,0-5.82-1.87,47.16,47.16,0,0,0-6-1.14A49.58,49.58,0,0,0,49.08,0a49.09,49.09,0,0,0,0,98.17,49.58,49.58,0,0,0,6.1-.38,49,49,0,0,0,6-1.13A51.86,51.86,0,0,0,67,94.79a49,49,0,0,0,5.54-2.59A47.15,47.15,0,0,0,77.72,89a46.13,46.13,0,0,0,4.73-3.87,49,49,0,0,0,4.22-4.42,49.89,49.89,0,0,0,3.63-4.92Z"/></g></g></svg>